<?xml version="1.0" encoding="UTF-8" standalone="no"?>
<svg
   xmlns:osb="http://www.openswatchbook.org/uri/2009/osb"
   xmlns:dc="http://purl.org/dc/elements/1.1/"
   xmlns:cc="http://creativecommons.org/ns#"
   xmlns:rdf="http://www.w3.org/1999/02/22-rdf-syntax-ns#"
   xmlns:svg="http://www.w3.org/2000/svg"
   xmlns="http://www.w3.org/2000/svg"
   xmlns:xlink="http://www.w3.org/1999/xlink"
   xmlns:sodipodi="http://sodipodi.sourceforge.net/DTD/sodipodi-0.dtd"
   xmlns:inkscape="http://www.inkscape.org/namespaces/inkscape"
   viewBox="0 0 48 48"
   version="1.1"
   id="svg3779"
   sodipodi:docname="fridgebro4.svg"
   inkscape:export-filename="/home/anon/Downloads/fridgebro2.png"
   inkscape:export-xdpi="1200"
   inkscape:export-ydpi="1200"
   inkscape:version="0.92.2 2405546, 2018-03-11">
  <metadata
     id="metadata3785">
    <rdf:RDF>
      <cc:Work
         rdf:about="">
        <dc:format>image/svg+xml</dc:format>
        <dc:type
           rdf:resource="http://purl.org/dc/dcmitype/StillImage" />
        <dc:title></dc:title>
      </cc:Work>
    </rdf:RDF>
  </metadata>
  <defs
     id="defs3783">
    <linearGradient
       inkscape:collect="always"
       id="linearGradient5021">
      <stop
         style="stop-color:#9fdbe8;stop-opacity:0.49763033"
         offset="0"
         id="stop5017" />
      <stop
         style="stop-color:#47a0ff;stop-opacity:0.7014218"
         offset="1"
         id="stop5019" />
    </linearGradient>
    <linearGradient
       id="linearGradient4885"
       inkscape:collect="always">
      <stop
         id="stop4881"
         offset="0"
         style="stop-color:#2fb1ce;stop-opacity:1" />
      <stop
         id="stop4883"
         offset="1"
         style="stop-color:#4f7eb0;stop-opacity:1" />
    </linearGradient>
    <linearGradient
       inkscape:collect="always"
       id="linearGradient4828">
      <stop
         style="stop-color:#2fb1ce;stop-opacity:1"
         offset="0"
         id="stop4824" />
      <stop
         style="stop-color:#4f7eb0;stop-opacity:1"
         offset="1"
         id="stop4826" />
    </linearGradient>
    <linearGradient
       inkscape:collect="always"
       id="linearGradient4791"
       osb:paint="gradient">
      <stop
         style="stop-color:#4f7eb0;stop-opacity:0.86255926"
         offset="0"
         id="stop4787" />
      <stop
         style="stop-color:#00ffff;stop-opacity:0.89099526"
         offset="1"
         id="stop4789" />
    </linearGradient>
    <linearGradient
       inkscape:collect="always"
       xlink:href="#linearGradient4791"
       id="linearGradient4795"
       x1="22.71628"
       y1="28.409302"
       x2="30.418604"
       y2="38.706978"
       gradientUnits="userSpaceOnUse" />
    <linearGradient
       inkscape:collect="always"
       xlink:href="#linearGradient4885"
       id="linearGradient4832"
       x1="9.8999996"
       y1="24"
       x2="33.542961"
       y2="38.839375"
       gradientUnits="userSpaceOnUse" />
    <linearGradient
       inkscape:collect="always"
       xlink:href="#linearGradient4828"
       id="linearGradient4860"
       x1="14"
       y1="17.6"
       x2="31.707638"
       y2="33.38657"
       gradientUnits="userSpaceOnUse" />
    <linearGradient
       inkscape:collect="always"
       xlink:href="#linearGradient5021"
       id="linearGradient4990"
       x1="16.089186"
       y1="26.91855"
       x2="32.021767"
       y2="34.750893"
       gradientUnits="userSpaceOnUse"
       gradientTransform="translate(-0.55252995,0.6314628)" />
  </defs>
  <sodipodi:namedview
     pagecolor="#ffffff"
     bordercolor="#666666"
     borderopacity="1"
     objecttolerance="10"
     gridtolerance="10"
     guidetolerance="10"
     inkscape:pageopacity="0"
     inkscape:pageshadow="2"
     inkscape:window-width="1920"
     inkscape:window-height="1033"
     id="namedview3781"
     showgrid="false"
     inkscape:zoom="8.9583333"
     inkscape:cx="10.800405"
     inkscape:cy="13.756935"
     inkscape:window-x="1920"
     inkscape:window-y="20"
     inkscape:window-maximized="0"
     inkscape:current-layer="layer4"
     inkscape:snap-global="false" />
  <path
     d="M15 12.3c.6 0 1-.4 1-1V5.8c0-.6-.4-1-1-1s-1 .4-1 1v5.4c0 .6.5 1.1 1 1.1zM15 19.3c-.6 0-1 .4-1 1v9.1c0 .6.4 1 1 1s1-.4 1-1v-9.1c0-.5-.4-1-1-1z"
     id="path3777"
     style="fill-opacity:1;fill:url(#linearGradient4860)"
     inkscape:export-xdpi="5438.8735"
     inkscape:export-ydpi="5438.8735" />
  <g
     inkscape:groupmode="layer"
     id="layer4"
     inkscape:label="smash">
    <path
       inkscape:connector-curvature="0"
       d="m 22.485096,35.998469 c -0.105699,-0.01358 -0.186447,-0.08831 -0.190739,-0.176543 -0.10964,-2.222946 -1.086111,-2.69569 -2.979007,-3.248265 -0.550577,-0.07093 -1.151423,-0.289492 -1.958912,-0.262332 -0.08004,0.0035 -0.157095,-0.03073 -0.199308,-0.08846 -0.0431,-0.05713 -0.04544,-0.128284 -0.0061,-0.185064 1.494794,-2.158772 1.111244,-3.419121 -1.520082,-4.994458 -0.135138,-0.08032 -0.122757,-0.248291 0.02262,-0.306904 3.163362,-1.286165 3.729609,-2.442624 2.329818,-4.760209 -0.03873,-0.06416 -0.02931,-0.13994 0.02409,-0.193786 0.05341,-0.05399 0.141269,-0.07576 0.224092,-0.05551 0.799575,0.193059 1.459369,0.321723 2.016935,0.393555 2.556124,0.329312 3.554045,-0.453949 3.954057,-3.104303 0.0251,-0.167362 0.291011,-0.209193 0.399777,-0.06289 1.558548,2.087621 2.741783,3.332193 4.179024,3.517354 1.069693,0.137813 2.352678,-0.266997 4.290874,-1.353336 0.07967,-0.04381 0.1863,-0.03818 0.262351,0.01385 0.07567,0.05271 0.10157,0.139497 0.06347,0.212624 -2.361594,4.514311 -1.873517,5.82801 3.263629,8.784513 0.180945,0.103481 0.09507,0.334327 -0.121529,0.326697 -2.758377,-0.08921 -4.232813,0.157438 -5.088594,0.851119 -1.019661,0.826638 -1.199843,2.412972 -1.153743,4.703508 0.0091,0.02452 0.01191,0.05022 0.0081,0.07535 -0.01485,0.09947 -0.121378,0.161941 -0.246279,0.149629 -0.06261,-0.0081 -0.119231,-0.03719 -0.156406,-0.0804 -1.14729,-1.39338 -2.073472,-2.068318 -3.003584,-2.188147 -1.220507,-0.157241 -2.575976,0.680499 -4.235681,1.986384 -0.04702,0.03757 -0.113,0.05454 -0.178903,0.04602 z m -3.11637,-3.780858 c 2.040732,0.546806 3.129173,1.068235 3.332058,3.20517 1.637262,-1.254409 2.944032,-1.980665 4.25218,-1.812134 0.944347,0.121666 1.85447,0.706373 2.903644,1.877207 -0.0095,-2.155679 0.236146,-3.592105 1.285924,-4.4432 0.866776,-0.702549 2.250718,-0.992549 4.692815,-0.965077 -4.583043,-2.723282 -5.156242,-4.240851 -3.121641,-8.330675 -1.706156,0.890585 -2.920902,1.214978 -3.985102,1.077875 -1.512648,-0.194879 -2.669355,-1.301693 -4.178054,-3.273113 -0.492141,2.466153 -1.713065,3.263503 -4.354833,2.923158 -0.467177,-0.06018 -1.000717,-0.15831 -1.621909,-0.298373 1.336114,2.481712 0.144446,3.666328 -2.407128,4.752987 2.434635,1.537611 2.870869,2.939509 1.551603,5.010061 0.662126,-0.0098 1.164787,0.213562 1.650443,0.276112 z"
       id="path4939"
       style="fill:url(#linearGradient4990);fill-opacity:1;stroke-width:0.22893657"
       sodipodi:nodetypes="cccccccccccccccccccccccccscccccccccccccccccc"
       inkscape:export-xdpi="5438.8735"
       inkscape:export-ydpi="5438.8735" />
  </g>
  <g
     inkscape:groupmode="layer"
     id="layer2"
     inkscape:label="fridge">
    <path
       d="M34.1 0H13.9c-2.2 0-4 1.8-4 4v35.8c0 1.7 1 3.1 2.5 3.7l.6 2.4c.3 1.2 1.4 2.1 2.7 2.1 1.3 0 2.4-.9 2.7-2.1l.5-2.1h10.3l.5 2.1c.3 1.2 1.4 2.1 2.7 2.1 1.3 0 2.4-.9 2.7-2.1l.6-2.4c1.5-.6 2.5-2 2.5-3.7V4c-.1-2.2-1.9-4-4.1-4zM13.9 2h20.2c1.1 0 2 .9 2 2v10.4H11.9V4c0-1.1.9-2 2-2zm2.5 43.4c-.1.4-.4.6-.8.6s-.6-.2-.7-.6l-.4-1.7h2.2l-.3 1.7zm16.7 0c-.1.4-.4.6-.7.6s-.6-.2-.7-.6l-.4-1.7h2.2l-.4 1.7zm1-3.6H13.9c-1.1 0-2-.9-2-2V16.4h24.2v23.4c0 1.1-.9 2-2 2z"
       id="path3775"
       style="fill-opacity:1;fill:url(#linearGradient4832);stroke:#ffffff;stroke-opacity:1;stroke-width:0.1;stroke-miterlimit:4;stroke-dasharray:none"
       inkscape:export-xdpi="5438.8735"
       inkscape:export-ydpi="5438.8735" />
  </g>
  <g
     inkscape:groupmode="layer"
     id="layer3"
     inkscape:label="bro" />
  <path
     inkscape:connector-curvature="0"
     d="m 31.8584,26.62517 a 0.41780722,0.45559088 25.706789 0 0 -0.02275,-0.07484 1.4724663,1.6056261 25.706786 0 0 -1.524938,-0.893634 0.66119007,0.72098359 25.706785 0 1 -0.700311,-0.410394 1.4724663,1.6056261 25.706786 0 0 -1.524933,-0.893633 0.66119007,0.72098359 25.706785 0 1 -0.700313,-0.41039 1.4724663,1.6056261 25.706786 0 0 -1.524932,-0.893636 0.66119007,0.72098359 25.706785 0 1 -0.700315,-0.410392 1.4744945,1.6078378 25.706788 0 0 -1.524932,-0.89363 c -0.698307,0.103187 -1.120807,0.501223 -1.81814,1.727152 l -1.489744,2.61904 a 2.0383313,2.2226642 25.706788 0 0 -0.111644,2.104606 l -0.395665,0.695588 a 1.5191146,1.656493 25.706784 0 0 0.460742,2.214585 l 2.521146,1.47741 a 1.5191146,1.656493 25.706784 0 0 2.119894,-0.702324 1.5840166,1.7272644 25.706789 0 0 0.144023,-0.322961 1.906499,2.0789098 25.706789 0 0 1.263323,0.110056 2.0788951,2.2668964 25.706787 0 0 0.803393,0.926842 c 0.851575,0.501525 2.03386,0.06458 2.626261,-0.976886 l 1.489686,-2.619009 c 0.733397,-1.289343 0.754652,-1.671442 0.623299,-2.294131 z m -8.622658,5.182306 -2.52288,-1.478443 a 0.70175389,0.76521577 25.706787 0 1 -0.19566,-1.026737 l 0.251393,-0.441954 0.101512,0.05952 a 1.8841889,2.0545822 25.70679 0 0 1.137791,0.215844 1.8395687,2.0059268 25.706783 0 0 2.139911,1.289882 2.0606414,2.2469918 25.706785 0 0 0.139326,0.337844 0.73420493,0.80060146 25.706787 0 1 -0.07206,0.693063 0.70175389,0.76521577 25.706787 0 1 -0.979332,0.350991 z m 5.822466,-0.600087 c -0.349759,0.614888 -1.019106,0.888763 -1.491821,0.611742 A 1.2635625,1.3778307 25.706793 0 1 27.04601,31.158064 l 1.321425,-2.323116 a 0.40563826,0.44232143 25.706789 0 0 -0.700312,-0.410395 l -1.335635,2.348097 a 1.107392,1.207537 25.706785 0 1 -0.931164,-0.03327 1.0140951,1.1058031 25.706786 0 1 -0.356145,-0.375245 l -0.01933,-0.05223 a 0.40563808,0.44232124 25.706787 0 0 -0.03194,-0.05462 1.3304929,1.4508137 25.70679 0 1 -0.09373,-0.31119 l 1.341087,-2.357716 a 0.40564334,0.44232698 25.706787 0 0 -0.70032,-0.410403 l -1.33563,2.348099 a 1.0506026,1.1456121 25.706786 0 1 -1.426879,-0.83617 l 1.335636,-2.348103 A 0.40564512,0.44232889 25.706784 0 0 23.41274,25.931416 l -1.323613,2.32696 a 1.0769691,1.1743628 25.706788 0 1 -0.766014,-0.0979 c -0.486714,-0.28522 -0.619466,-1.057315 -0.28176,-1.651064 l 1.489744,-2.619039 c 0.637218,-1.120246 0.866015,-1.226996 1.168356,-1.27016 a 0.66119007,0.72098359 25.706785 0 1 0.700333,0.410394 1.4744945,1.6078378 25.706788 0 0 1.524932,0.893629 0.66119007,0.72098359 25.706785 0 1 0.700316,0.410396 1.4744945,1.6078378 25.706788 0 0 1.524934,0.893632 0.66119007,0.72098359 25.706785 0 1 0.700313,0.410391 1.4724663,1.6056261 25.706786 0 0 1.524928,0.89363 0.65916188,0.71877201 25.706787 0 1 0.687394,0.379757 l 0.009,0.04609 c 0.06389,0.347398 0.103992,0.527204 -0.523415,1.630165 z M 22.659283,19.766318 21.940776,18.394757 a 0.407915,0.44480406 25.706787 0 0 -0.731607,0.465417 l 0.718506,1.371567 a 0.40791481,0.44480387 25.70679 0 0 0.73161,-0.46541 z m -3.023604,3.608388 a 0.40563808,0.44232124 25.706787 0 0 -0.131558,-0.589501 l -1.299085,-0.761283 a 0.40563949,0.44232279 25.706788 0 0 -0.437199,0.76861 l 1.297332,0.760253 a 0.40563808,0.44232124 25.706787 0 0 0.570518,-0.17805 z m -1.540253,3.586068 -1.526227,0.04841 a 0.40791477,0.44480382 25.706788 1 0 -0.03129,0.875804 l 1.529501,-0.0542 a 0.40563808,0.44232124 25.706787 0 0 0.02804,-0.870043 z m 12.754918,8.41738 -0.718505,-1.371564 a 0.40791539,0.44480448 25.706786 0 0 -0.731608,0.465419 l 0.718508,1.371565 a 0.40791481,0.44480387 25.70679 0 0 0.73161,-0.465408 z M 34.290579,31.44771 32.98975,30.685403 a 0.40563882,0.44232206 25.706789 1 0 -0.437197,0.76861 l 1.300829,0.762303 a 0.4056387,0.44232194 25.706788 0 0 0.437197,-0.768606 z m -0.539607,-4.218191 a 0.40563808,0.44232124 25.706787 0 0 0.204601,0.05065 l 1.529498,-0.05421 a 0.40791548,0.4448046 25.706787 0 0 0.0313,-0.875808 l -1.529504,0.0542 a 0.40563808,0.44232124 25.706787 0 0 -0.235887,0.825085 z"
     id="path3808"
     style="fill:url(#linearGradient4795);fill-opacity:1;stroke:#fafaff;stroke-width:0.1;stroke-opacity:1;stroke-miterlimit:4;stroke-dasharray:none;stroke-dashoffset:3.12000006;stroke-linejoin:round"
     inkscape:export-xdpi="5438.8735"
     inkscape:export-ydpi="5438.8735" />
</svg>
